<svg width="49" height="49" viewBox="0 0 49 49" fill="none" xmlns="http://www.w3.org/2000/svg">
<path d="M36.12 11.48V12.96L29.04 8.86C26.36 7.32 22.62 7.32 19.96 8.86L12.88 12.98V11.48C12.88 6.98 15.34 4.5 19.84 4.5H29.16C33.66 4.5 36.12 6.98 36.12 11.48Z" fill="url(#paint0_linear_51_78)"/>
<path d="M36.18 16.44L35.9 16.3L33.18 14.74L27.54 11.48C25.82 10.48 23.18 10.48 21.46 11.48L15.82 14.72L13.1 16.32L12.74 16.5C9.24 18.86 9 19.3 9 23.08V32.12C9 35.9 9.24 36.34 12.82 38.76L21.46 43.74C22.32 44.26 23.4 44.48 24.5 44.48C25.58 44.48 26.68 44.24 27.54 43.74L36.26 38.7C39.78 36.34 40 35.92 40 32.12V23.08C40 19.3 39.76 18.86 36.18 16.44ZM30.08 27.5L28.86 29C28.66 29.22 28.52 29.64 28.54 29.94L28.66 31.86C28.74 33.04 27.9 33.64 26.8 33.22L25.02 32.5C24.74 32.4 24.28 32.4 24 32.5L22.22 33.2C21.12 33.64 20.28 33.02 20.36 31.84L20.48 29.92C20.5 29.62 20.36 29.2 20.16 28.98L18.92 27.5C18.16 26.6 18.5 25.6 19.64 25.3L21.5 24.82C21.8 24.74 22.14 24.46 22.3 24.22L23.34 22.62C23.98 21.62 25 21.62 25.66 22.62L26.7 24.22C26.86 24.48 27.22 24.74 27.5 24.82L29.36 25.3C30.5 25.6 30.84 26.6 30.08 27.5Z" fill="url(#paint1_linear_51_78)"/>
<defs>
<linearGradient id="paint0_linear_51_78" x1="25.8319" y1="8.67672" x2="13.2524" y2="6.51218" gradientUnits="userSpaceOnUse">
<stop stop-color="#5E3BEE"/>
<stop offset="1" stop-color="#B416FF"/>
</linearGradient>
<linearGradient id="paint1_linear_51_78" x1="26.2766" y1="27.3531" x2="9.05727" y2="26.3601" gradientUnits="userSpaceOnUse">
<stop stop-color="#5E3BEE"/>
<stop offset="1" stop-color="#B416FF"/>
</linearGradient>
</defs>
</svg>
