<svg width="25" height="25" viewBox="0 0 25 25" fill="none" xmlns="http://www.w3.org/2000/svg">
<path d="M8.25001 3C8.25001 2.80109 8.17099 2.61032 8.03034 2.46967C7.88969 2.32902 7.69892 2.25 7.50001 2.25C7.3011 2.25 7.11033 2.32902 6.96968 2.46967C6.82903 2.61032 6.75001 2.80109 6.75001 3V4.58C5.31001 4.695 4.36601 4.977 3.67201 5.672C2.97701 6.366 2.69501 7.311 2.57901 8.75H22.421C22.305 7.31 22.023 6.366 21.328 5.672C20.634 4.977 19.689 4.695 18.25 4.579V3C18.25 2.80109 18.171 2.61032 18.0303 2.46967C17.8897 2.32902 17.6989 2.25 17.5 2.25C17.3011 2.25 17.1103 2.32902 16.9697 2.46967C16.829 2.61032 16.75 2.80109 16.75 3V4.513C16.085 4.5 15.339 4.5 14.5 4.5H10.5C9.66101 4.5 8.91501 4.5 8.25001 4.513V3Z" fill="white"/>
<path fill-rule="evenodd" clip-rule="evenodd" d="M2.5 12.5C2.5 11.661 2.5 10.915 2.513 10.25H22.487C22.5 10.915 22.5 11.661 22.5 12.5V14.5C22.5 18.271 22.5 20.157 21.328 21.328C20.156 22.499 18.271 22.5 14.5 22.5H10.5C6.729 22.5 4.843 22.5 3.672 21.328C2.501 20.156 2.5 18.271 2.5 14.5V12.5ZM17.5 14.5C17.7652 14.5 18.0196 14.3946 18.2071 14.2071C18.3946 14.0196 18.5 13.7652 18.5 13.5C18.5 13.2348 18.3946 12.9804 18.2071 12.7929C18.0196 12.6054 17.7652 12.5 17.5 12.5C17.2348 12.5 16.9804 12.6054 16.7929 12.7929C16.6054 12.9804 16.5 13.2348 16.5 13.5C16.5 13.7652 16.6054 14.0196 16.7929 14.2071C16.9804 14.3946 17.2348 14.5 17.5 14.5ZM17.5 18.5C17.7652 18.5 18.0196 18.3946 18.2071 18.2071C18.3946 18.0196 18.5 17.7652 18.5 17.5C18.5 17.2348 18.3946 16.9804 18.2071 16.7929C18.0196 16.6054 17.7652 16.5 17.5 16.5C17.2348 16.5 16.9804 16.6054 16.7929 16.7929C16.6054 16.9804 16.5 17.2348 16.5 17.5C16.5 17.7652 16.6054 18.0196 16.7929 18.2071C16.9804 18.3946 17.2348 18.5 17.5 18.5ZM13.5 13.5C13.5 13.7652 13.3946 14.0196 13.2071 14.2071C13.0196 14.3946 12.7652 14.5 12.5 14.5C12.2348 14.5 11.9804 14.3946 11.7929 14.2071C11.6054 14.0196 11.5 13.7652 11.5 13.5C11.5 13.2348 11.6054 12.9804 11.7929 12.7929C11.9804 12.6054 12.2348 12.5 12.5 12.5C12.7652 12.5 13.0196 12.6054 13.2071 12.7929C13.3946 12.9804 13.5 13.2348 13.5 13.5ZM13.5 17.5C13.5 17.7652 13.3946 18.0196 13.2071 18.2071C13.0196 18.3946 12.7652 18.5 12.5 18.5C12.2348 18.5 11.9804 18.3946 11.7929 18.2071C11.6054 18.0196 11.5 17.7652 11.5 17.5C11.5 17.2348 11.6054 16.9804 11.7929 16.7929C11.9804 16.6054 12.2348 16.5 12.5 16.5C12.7652 16.5 13.0196 16.6054 13.2071 16.7929C13.3946 16.9804 13.5 17.2348 13.5 17.5ZM7.5 14.5C7.76522 14.5 8.01957 14.3946 8.20711 14.2071C8.39464 14.0196 8.5 13.7652 8.5 13.5C8.5 13.2348 8.39464 12.9804 8.20711 12.7929C8.01957 12.6054 7.76522 12.5 7.5 12.5C7.23478 12.5 6.98043 12.6054 6.79289 12.7929C6.60536 12.9804 6.5 13.2348 6.5 13.5C6.5 13.7652 6.60536 14.0196 6.79289 14.2071C6.98043 14.3946 7.23478 14.5 7.5 14.5ZM7.5 18.5C7.76522 18.5 8.01957 18.3946 8.20711 18.2071C8.39464 18.0196 8.5 17.7652 8.5 17.5C8.5 17.2348 8.39464 16.9804 8.20711 16.7929C8.01957 16.6054 7.76522 16.5 7.5 16.5C7.23478 16.5 6.98043 16.6054 6.79289 16.7929C6.60536 16.9804 6.5 17.2348 6.5 17.5C6.5 17.7652 6.60536 18.0196 6.79289 18.2071C6.98043 18.3946 7.23478 18.5 7.5 18.5Z" fill="white"/>
</svg>
