<svg width="32" height="32" viewBox="0 0 32 32" fill="none" xmlns="http://www.w3.org/2000/svg">
<path d="M22 8H18C17.2636 8 16.6666 8.59696 16.6666 9.33333V13.3333H22C22.1516 13.33 22.2954 13.4005 22.3856 13.5225C22.4757 13.6445 22.501 13.8027 22.4533 13.9467L21.4666 16.88C21.3757 17.1492 21.1241 17.3312 20.84 17.3333H16.6666V27.3333C16.6666 27.7015 16.3681 28 16 28H12.6666C12.2984 28 12 27.7015 12 27.3333V17.3333H9.99996C9.63178 17.3333 9.3333 17.0348 9.3333 16.6667V14C9.3333 13.6319 9.63178 13.3333 9.99996 13.3333H12V9.33333C12 6.38781 14.3878 4 17.3333 4H22C22.3681 4 22.6666 4.29848 22.6666 4.66667V7.33333C22.6666 7.70152 22.3681 8 22 8Z" fill="url(#paint0_linear_50_414)"/>
<defs>
<linearGradient id="paint0_linear_50_414" x1="16.7641" y1="15.8209" x2="9.34233" y2="15.562" gradientUnits="userSpaceOnUse">
<stop stop-color="#5E3BEE"/>
<stop offset="1" stop-color="#B416FF"/>
</linearGradient>
</defs>
</svg>
