<svg width="199" height="31" viewBox="0 0 199 31" fill="none" xmlns="http://www.w3.org/2000/svg">
<path d="M1.43255 27.2061L4.49649 21.9943C5.25231 20.7087 7.11056 20.7062 7.86981 21.9898C8.22834 22.596 8.23375 23.3479 7.88399 23.9592L4.88135 29.2065C4.52626 29.827 3.86605 30.2099 3.15109 30.2099C1.6095 30.2099 0.651276 28.535 1.43255 27.2061Z" fill="white"/>
<path d="M21.8484 20.6236H17.5548C16.9236 20.6236 16.3396 20.2893 16.0199 19.7451C15.3229 18.5585 16.1785 17.0635 17.5548 17.0635H24.3083C25.7352 17.0635 27.0541 17.8236 27.7694 19.0583L32.5273 27.2707C33.2886 28.5847 32.3405 30.2299 30.8218 30.2299C30.116 30.2299 29.4641 29.8525 29.1126 29.2404L25.3171 22.6315C24.6038 21.3894 23.2808 20.6236 21.8484 20.6236Z" fill="white"/>
<path d="M19.8541 29.1132L22.0345 25.1432C22.7237 23.8884 21.8158 22.354 20.3842 22.354C19.7047 22.354 19.0779 22.7201 18.7442 23.312L18.7091 23.3743C17.9455 24.7284 15.9966 24.7318 15.2283 23.3804L12.2812 18.1966C11.931 17.5808 11.9328 16.8257 12.2858 16.2116L15.228 11.092C15.9996 9.74951 17.9384 9.75527 18.702 11.1023L20.5985 14.4481C20.9434 15.0566 21.5888 15.4327 22.2883 15.4327C23.7847 15.4327 24.7191 13.8118 23.9693 12.5169L18.6986 3.41469C17.9296 2.08672 16.0133 2.08371 15.2402 3.40926L7.78187 16.1967C7.41918 16.8185 7.41866 17.5873 7.78052 18.2096L14.1451 29.1557C14.5032 29.7715 15.1618 30.1504 15.8741 30.1504H18.1011C18.8309 30.1504 19.5027 29.7528 19.8541 29.1132Z" fill="white"/>
<path d="M48.6016 29.158C46.3543 29.158 44.4465 28.9947 42.8781 28.668C41.3097 28.3413 40.0339 27.7813 39.0508 26.988C38.0676 26.1947 37.3536 25.1272 36.9089 23.7855C36.4641 22.4438 36.2417 20.758 36.2417 18.728C36.2417 16.628 36.4641 14.8897 36.9089 13.513C37.3536 12.1363 38.0676 11.0455 39.0508 10.2405C40.0339 9.43551 41.3097 8.86967 42.8781 8.54301C44.4465 8.21634 46.3543 8.05301 48.6016 8.05301C50.1934 8.05301 51.5277 8.13467 52.6045 8.29801C53.6813 8.46134 54.5591 8.66551 55.238 8.91051C55.9285 9.15551 56.4494 9.42384 56.8005 9.71551C57.1633 9.99551 57.4267 10.258 57.5906 10.503V1.89301H60.9614V28.773H57.5906V25.7805C57.5906 25.7805 57.3096 26.113 56.7478 26.778C56.2563 27.2563 55.712 27.6413 55.1151 27.933C54.5181 28.2247 53.6813 28.5047 52.6045 28.773C51.5277 29.0297 50.1934 29.158 48.6016 29.158ZM48.6016 26.533C49.7252 26.533 50.7259 26.5097 51.6037 26.463C52.4816 26.4047 53.2541 26.288 53.9212 26.113C54.5884 25.938 55.1502 25.6813 55.6067 25.343C56.0748 24.993 56.4552 24.5322 56.7478 23.9605C57.0404 23.3888 57.2511 22.683 57.3799 21.843C57.5203 20.9913 57.5906 19.9705 57.5906 18.7805C57.5906 17.5438 57.5203 16.4938 57.3799 15.6305C57.2511 14.7555 57.0404 14.0263 56.7478 13.443C56.4552 12.848 56.0748 12.3813 55.6067 12.043C55.1502 11.7047 54.5884 11.448 53.9212 11.273C53.2541 11.0863 52.4816 10.9697 51.6037 10.923C50.7259 10.8763 49.7252 10.853 48.6016 10.853C47.2907 10.853 46.1553 10.8938 45.1956 10.9755C44.2475 11.0572 43.4399 11.203 42.7728 11.413C42.1056 11.623 41.5614 11.9147 41.14 12.288C40.7303 12.6613 40.4085 13.1397 40.1744 13.723C39.952 14.3063 39.7998 15.0122 39.7179 15.8405C39.6477 16.6572 39.6126 17.6197 39.6126 18.728C39.6126 19.8247 39.6477 20.7813 39.7179 21.598C39.7998 22.403 39.952 23.0972 40.1744 23.6805C40.4085 24.2522 40.7303 24.7247 41.14 25.098C41.5614 25.4713 42.1056 25.763 42.7728 25.973C43.4399 26.183 44.2475 26.3288 45.1956 26.4105C46.1553 26.4922 47.2907 26.533 48.6016 26.533Z" fill="white"/>
<path d="M85.6811 28.773V17.573C85.6811 16.3247 85.5875 15.2747 85.4002 14.423C85.213 13.5597 84.8384 12.8655 84.2766 12.3405C83.7148 11.8155 82.9189 11.4363 81.8889 11.203C80.8589 10.9697 79.5012 10.853 77.8158 10.853C75.9899 10.853 74.4917 10.9872 73.3213 11.2555C72.1625 11.5238 71.2496 11.903 70.5825 12.393C69.9153 12.883 69.453 13.4722 69.1955 14.1605C68.9497 14.8488 68.8268 15.613 68.8268 16.453V28.773H65.4559V8.61301H68.8268V11.973C69.0726 11.4013 69.4237 10.9113 69.8802 10.503C70.3367 10.083 70.8517 9.72717 71.4252 9.43551C71.9987 9.14384 72.619 8.91051 73.2862 8.73551C73.9533 8.54884 74.6205 8.40884 75.2876 8.31551C75.9548 8.21051 76.5985 8.14051 77.2189 8.10551C77.8509 8.07051 78.4244 8.05301 78.9394 8.05301C80.4376 8.05301 81.7251 8.14634 82.8019 8.33301C83.8904 8.51967 84.8092 8.79384 85.5582 9.15551C86.319 9.51717 86.9277 9.96634 87.3841 10.503C87.8406 11.0397 88.1917 11.6638 88.4375 12.3755C88.695 13.0755 88.8647 13.863 88.9467 14.738C89.0286 15.6013 89.0696 16.5463 89.0696 17.573L89.052 28.773H85.6811Z" fill="white"/>
<path d="M113.719 26.008C113.684 26.148 113.421 26.498 112.929 27.058C112.578 27.478 112.11 27.8513 111.524 28.178C110.939 28.493 110.155 28.738 109.172 28.913C108.2 29.0997 106.919 29.193 105.327 29.193C103.208 29.193 101.4 29.0822 99.902 28.8605C98.4038 28.6505 97.1807 28.3238 96.2327 27.8805C95.2846 27.4255 94.5882 26.848 94.1434 26.148C93.7104 25.448 93.4938 24.6138 93.4938 23.6455C93.4938 22.6305 93.6109 21.773 93.845 21.073C94.0908 20.3613 94.4419 19.7663 94.8984 19.288C95.3665 18.8097 95.9284 18.4363 96.5838 18.168C97.2392 17.8997 97.9825 17.6955 98.8135 17.5555C99.6562 17.4155 100.575 17.328 101.57 17.293C102.565 17.258 103.624 17.2405 104.748 17.2405C106.351 17.2405 107.691 17.3105 108.768 17.4505C109.845 17.5788 110.723 17.748 111.402 17.958C112.092 18.1563 112.613 18.3722 112.964 18.6055C113.315 18.8388 113.567 19.0547 113.719 19.253C113.719 17.9463 113.661 16.8322 113.543 15.9105C113.438 14.9888 113.257 14.2188 112.999 13.6005C112.753 12.9822 112.432 12.4922 112.034 12.1305C111.636 11.7572 111.144 11.4772 110.559 11.2905C109.985 11.1038 109.312 10.9872 108.54 10.9405C107.767 10.8822 106.884 10.853 105.889 10.853C104.344 10.853 103.062 10.8938 102.044 10.9755C101.026 11.0455 100.218 11.1913 99.6211 11.413C99.0242 11.6347 98.6028 11.9438 98.357 12.3405C98.1112 12.7255 97.9883 13.233 97.9883 13.863H94.6175C94.6175 12.8013 94.8047 11.903 95.1793 11.168C95.5655 10.433 96.1976 9.83801 97.0754 9.38301C97.9649 8.91634 99.1295 8.57801 100.569 8.36801C102.009 8.15801 103.782 8.05301 105.889 8.05301C107.949 8.05301 109.693 8.22217 111.121 8.56051C112.549 8.89884 113.701 9.49384 114.579 10.3455C115.469 11.1972 116.107 12.3463 116.493 13.793C116.891 15.228 117.09 17.048 117.09 19.253V28.773H113.719V26.008ZM105.889 26.533C107.375 26.533 108.616 26.463 109.611 26.323C110.617 26.183 111.425 25.973 112.034 25.693C112.642 25.413 113.075 25.063 113.333 24.643C113.59 24.223 113.719 23.733 113.719 23.173C113.719 22.613 113.567 22.1405 113.263 21.7555C112.97 21.3588 112.473 21.038 111.77 20.793C111.08 20.548 110.161 20.373 109.014 20.268C107.867 20.1513 106.451 20.093 104.765 20.093C103.08 20.093 101.716 20.1222 100.674 20.1805C99.6445 20.2388 98.8486 20.373 98.2868 20.583C97.725 20.793 97.3446 21.1022 97.1456 21.5105C96.9583 21.9188 96.8647 22.473 96.8647 23.173C96.8647 23.873 96.9642 24.4447 97.1632 24.888C97.3738 25.3197 97.7952 25.658 98.4272 25.903C99.0593 26.148 99.9664 26.3172 101.149 26.4105C102.342 26.4922 103.922 26.533 105.889 26.533Z" fill="white"/>
<path d="M141.827 28.773V17.573C141.827 16.3247 141.734 15.2747 141.546 14.423C141.359 13.5597 140.984 12.8655 140.423 12.3405C139.861 11.8155 139.065 11.4363 138.035 11.203C137.005 10.9697 135.647 10.853 133.962 10.853C132.136 10.853 130.638 10.9872 129.467 11.2555C128.309 11.5238 127.396 11.903 126.729 12.393C126.061 12.883 125.599 13.4722 125.342 14.1605C125.096 14.8488 124.973 15.613 124.973 16.453V28.773H121.602V8.61301H124.973V11.973C125.219 11.4013 125.57 10.9113 126.026 10.503C126.483 10.083 126.998 9.72717 127.571 9.43551C128.145 9.14384 128.765 8.91051 129.432 8.73551C130.099 8.54884 130.767 8.40884 131.434 8.31551C132.101 8.21051 132.745 8.14051 133.365 8.10551C133.997 8.07051 134.57 8.05301 135.085 8.05301C136.584 8.05301 137.871 8.14634 138.948 8.33301C140.036 8.51967 140.955 8.79384 141.704 9.15551C142.465 9.51717 143.074 9.96634 143.53 10.503C143.987 11.0397 144.338 11.6638 144.584 12.3755C144.841 13.0755 145.011 13.863 145.093 14.738C145.175 15.6013 145.216 16.5463 145.216 17.573L145.198 28.773H141.827Z" fill="white"/>
<path d="M186.988 10.293C186.988 8.89301 186.836 7.78467 186.531 6.96801C186.227 6.15134 185.724 5.53301 185.022 5.11301C184.319 4.69301 183.395 4.42467 182.248 4.30801C181.101 4.19134 179.684 4.13301 177.999 4.13301H168.975C167.477 4.13301 166.213 4.17967 165.183 4.27301C164.164 4.35467 163.322 4.52967 162.654 4.79801C161.987 5.06634 161.472 5.45134 161.109 5.95301C160.747 6.45467 160.483 7.11967 160.319 7.94801C160.156 8.77634 160.062 9.79717 160.039 11.0105C160.015 12.2122 160.003 13.653 160.003 15.333C160.003 17.013 160.015 18.4597 160.039 19.673C160.074 20.8747 160.173 21.8897 160.337 22.718C160.501 23.5463 160.758 24.2113 161.109 24.713C161.472 25.2147 161.987 25.5997 162.654 25.868C163.322 26.1363 164.164 26.3172 165.183 26.4105C166.213 26.4922 167.477 26.533 168.975 26.533H178.016C179.327 26.533 180.457 26.498 181.405 26.428C182.353 26.358 183.161 26.2297 183.828 26.043C184.495 25.8563 185.033 25.5997 185.443 25.273C185.853 24.9463 186.169 24.538 186.391 24.048C186.625 23.5463 186.783 22.9513 186.865 22.263C186.947 21.563 186.988 20.7463 186.988 19.813V18.133H173.469V15.333H190.359V19.813C190.359 20.933 190.289 21.948 190.148 22.858C190.008 23.7563 189.756 24.5613 189.393 25.273C189.042 25.973 188.568 26.5797 187.971 27.093C187.374 27.6063 186.619 28.0322 185.706 28.3705C184.793 28.6972 183.705 28.9363 182.441 29.088C181.177 29.2513 179.702 29.333 178.016 29.333H168.975C166.915 29.333 165.177 29.2047 163.761 28.948C162.356 28.703 161.197 28.3297 160.284 27.828C159.371 27.3147 158.663 26.673 158.16 25.903C157.668 25.133 157.306 24.2288 157.071 23.1905C156.849 22.1522 156.72 20.9797 156.685 19.673C156.65 18.3663 156.633 16.9197 156.633 15.333C156.633 13.7463 156.65 12.2997 156.685 10.993C156.72 9.68634 156.849 8.51384 157.071 7.47551C157.306 6.43717 157.668 5.53301 158.16 4.76301C158.663 3.99301 159.371 3.35717 160.284 2.85551C161.197 2.34217 162.356 1.96301 163.761 1.71801C165.177 1.46134 166.915 1.33301 168.975 1.33301H177.999C179.684 1.33301 181.159 1.41467 182.423 1.57801C183.687 1.72967 184.776 1.96884 185.689 2.29551C186.602 2.61051 187.357 3.01301 187.954 3.50301C188.562 3.99301 189.042 4.57051 189.393 5.23551C189.756 5.90051 190.008 6.65301 190.148 7.49301C190.289 8.33301 190.359 9.26634 190.359 10.293H186.988Z" fill="white"/>
<path d="M198.242 28.773H194.871V25.413H198.242V28.773Z" fill="white"/>
</svg>
