<svg width="40" height="40" viewBox="0 0 40 40" fill="none" xmlns="http://www.w3.org/2000/svg">
<g clip-path="url(#clip0_216_427)">
<path d="M9.89474 27.1176C9.40815 27.1179 8.9403 27.3099 8.58815 27.6539C8.23599 27.998 8.02651 28.4676 8.00313 28.9655C7.97974 29.4635 8.14424 29.9515 8.46254 30.3286C8.78083 30.7057 9.22853 30.9428 9.71284 30.9909L9.89474 31H30.1053C30.5919 30.9998 31.0597 30.8077 31.4119 30.4637C31.764 30.1197 31.9735 29.65 31.9969 29.1521C32.0203 28.6542 31.8558 28.1661 31.5375 27.789C31.2192 27.412 30.7715 27.1748 30.2872 27.1267L30.1053 27.1176H9.89474ZM9.80232 18.0588C9.2998 18.0588 8.81787 18.2633 8.46254 18.6274C8.10721 18.9914 7.90758 19.4852 7.90758 20C7.90758 20.5148 8.10721 21.0086 8.46254 21.3726C8.81787 21.7367 9.2998 21.9412 9.80232 21.9412H30.1053C30.6078 21.9412 31.0897 21.7367 31.445 21.3726C31.8004 21.0086 32 20.5148 32 20C32 19.4852 31.8004 18.9914 31.445 18.6274C31.0897 18.2633 30.6078 18.0588 30.1053 18.0588H9.80232ZM9.89474 9C9.39222 9 8.91029 9.20452 8.55496 9.56856C8.19963 9.9326 8 10.4263 8 10.9412C8 11.456 8.19963 11.9498 8.55496 12.3138C8.91029 12.6778 9.39222 12.8824 9.89474 12.8824H30.1053C30.6078 12.8824 31.0897 12.6778 31.445 12.3138C31.8004 11.9498 32 11.456 32 10.9412C32 10.4263 31.8004 9.9326 31.445 9.56856C31.0897 9.20452 30.6078 9 30.1053 9H9.89474Z" fill="url(#paint0_linear_216_427)"/>
</g>
<defs>
<linearGradient id="paint0_linear_216_427" x1="18.5731" y1="19.8358" x2="31.9368" y2="18.917" gradientUnits="userSpaceOnUse">
<stop stop-color="#5E3BEE"/>
<stop offset="1" stop-color="#B416FF"/>
</linearGradient>
<clipPath id="clip0_216_427">
<rect width="40" height="40" fill="white"/>
</clipPath>
</defs>
</svg>
