<svg width="32" height="32" viewBox="0 0 32 32" fill="none" xmlns="http://www.w3.org/2000/svg">
<path fill-rule="evenodd" clip-rule="evenodd" d="M21.3333 4H10.6666C6.98474 4 3.99997 6.98477 3.99997 10.6667V21.3333C3.99997 25.0152 6.98474 28 10.6666 28H21.3333C25.0152 28 28 25.0152 28 21.3333V10.6667C28 6.98477 25.0152 4 21.3333 4ZM25.6666 21.3333C25.6593 23.7235 23.7234 25.6593 21.3333 25.6667H10.6666C8.27644 25.6593 6.34062 23.7235 6.3333 21.3333V10.6667C6.34062 8.27647 8.27644 6.34065 10.6666 6.33333H21.3333C23.7234 6.34065 25.6593 8.27647 25.6666 10.6667V21.3333ZM22.3333 11C23.0697 11 23.6666 10.403 23.6666 9.66667C23.6666 8.93029 23.0697 8.33333 22.3333 8.33333C21.5969 8.33333 21 8.93029 21 9.66667C21 10.403 21.5969 11 22.3333 11ZM16 10C12.6863 10 9.99997 12.6863 9.99997 16C9.99997 19.3137 12.6863 22 16 22C19.3137 22 22 19.3137 22 16C22.0036 14.4076 21.3725 12.8794 20.2465 11.7534C19.1205 10.6275 17.5924 9.99645 16 10ZM12.3333 16C12.3333 18.0251 13.9749 19.6667 16 19.6667C18.025 19.6667 19.6666 18.0251 19.6666 16C19.6666 13.9749 18.025 12.3333 16 12.3333C13.9749 12.3333 12.3333 13.9749 12.3333 16Z" fill="url(#paint0_linear_50_416)"/>
<defs>
<linearGradient id="paint0_linear_50_416" x1="17.3754" y1="15.8209" x2="4.05249" y2="14.9844" gradientUnits="userSpaceOnUse">
<stop stop-color="#5E3BEE"/>
<stop offset="1" stop-color="#B416FF"/>
</linearGradient>
</defs>
</svg>
