<svg width="40" height="40" viewBox="0 0 40 40" fill="none" xmlns="http://www.w3.org/2000/svg">
<path d="M10.2916 17.2217C8.27831 17.9017 7.03331 18.8383 7.03331 19.8767C7.03331 21.29 9.34831 22.5217 12.7666 23.16C11.4966 23.8033 10.7383 24.6183 10.7383 25.5067C10.7383 27.5783 14.8833 29.2583 19.9966 29.2583C21.2383 29.2608 22.4779 29.1565 23.7016 28.9467M12.7683 23.1617C14.5429 23.4784 16.3424 23.6346 18.145 23.6283C20.9916 23.6283 23.5866 23.2683 25.5533 22.6733M27.4033 16.8733C25.0516 17.5683 21.7716 18 18.145 18C10.9866 18 5.18164 16.32 5.18164 14.2467C5.18164 12.6467 8.64331 11.28 13.515 10.74" stroke="#5E3BEE" stroke-width="2.625" stroke-linecap="round" stroke-linejoin="round"/>
<path d="M36.6666 31.7834C36.6666 34.48 29.2049 36.6667 19.9999 36.6667C10.7949 36.6667 3.33325 34.48 3.33325 31.7834C3.33325 29.8667 6.17825 28.2067 11.6666 27.4067M31.2666 14.6467C38.2899 12.8234 39.2933 23.76 29.2583 27.4067M29.2633 3.33337C28.0299 3.53837 25.7083 4.69171 26.2999 7.65504C26.8933 10.6167 26.0533 12.1817 25.5599 12.5934M21.8549 3.33337C20.6199 3.58004 18.2983 4.96337 18.8916 8.51837C19.4849 12.0734 18.6449 13.025 18.1516 13.5184" stroke="#5E3BEE" stroke-width="2.625" stroke-linecap="round" stroke-linejoin="round"/>
</svg>
