<svg width="40" height="40" viewBox="0 0 40 40" fill="none" xmlns="http://www.w3.org/2000/svg">
<path d="M10 5C8.67392 5 7.40215 5.52678 6.46447 6.46447C5.52678 7.40215 5 8.67392 5 10V30C5 31.3261 5.52678 32.5979 6.46447 33.5355C7.40215 34.4732 8.67392 35 10 35H30C31.3261 35 32.5979 34.4732 33.5355 33.5355C34.4732 32.5979 35 31.3261 35 30V10C35 8.67392 34.4732 7.40215 33.5355 6.46447C32.5979 5.52678 31.3261 5 30 5H10ZM22.2233 26.7583C23.4233 27.725 24.6211 28.2017 25.8167 28.1883C26.55 28.1883 27.1122 28.0539 27.5033 27.785C27.6854 27.6668 27.8336 27.5032 27.9333 27.3103C28.0329 27.1174 28.0806 26.9019 28.0717 26.685C28.0742 26.4484 28.0248 26.2141 27.9269 25.9987C27.8289 25.7833 27.6849 25.592 27.505 25.4383C27.1139 25.0972 26.3739 24.755 25.285 24.4117C23.9772 24.0339 22.9689 23.545 22.26 22.945C21.5644 22.345 21.21 21.5078 21.1967 20.4333C21.1967 19.4189 21.6367 18.5694 22.5167 17.885C23.3722 17.2006 24.4667 16.8583 25.8 16.8583C27.6578 16.8583 29.1483 17.3106 30.2717 18.215L28.9883 20.2133C28.5262 19.8541 27.9961 19.5921 27.43 19.4433C26.9213 19.2729 26.3897 19.1802 25.8533 19.1683C25.22 19.1683 24.7128 19.2844 24.3317 19.5167C23.9539 19.75 23.765 20.0556 23.765 20.4333C23.765 20.8489 23.9967 21.2033 24.46 21.4967C24.9267 21.7789 25.7211 22.0906 26.8433 22.4317C28.2 22.835 29.1656 23.3728 29.74 24.045C30.3144 24.7172 30.6017 25.5728 30.6017 26.6117C30.6017 27.675 30.1922 28.5917 29.3733 29.3617C28.5667 30.1194 27.3933 30.5167 25.8533 30.5533C23.8367 30.5533 22.15 29.9483 20.7933 28.7383L22.2233 26.7583ZM13.0067 27.8217C13.3978 28.0661 13.8683 28.1883 14.4183 28.1883C14.9928 28.1883 15.4694 28.0233 15.8483 27.6933C16.2261 27.3511 16.4156 26.7583 16.4167 25.915V17.0783H18.8917V26.3917C18.855 27.8339 18.4394 28.8728 17.645 29.5083C17.2103 29.8758 16.7049 30.1504 16.16 30.315C15.6547 30.4689 15.1299 30.5491 14.6017 30.5533C13.685 30.5533 12.8722 30.3944 12.1633 30.0767C11.4056 29.7356 10.77 29.1306 10.2567 28.2617L11.98 26.85C12.2967 27.2778 12.6389 27.6017 13.0067 27.8217Z" fill="#5E3BEE"/>
</svg>
