<svg width="32" height="32" viewBox="0 0 32 32" fill="none" xmlns="http://www.w3.org/2000/svg">
<path fill-rule="evenodd" clip-rule="evenodd" d="M6.66664 4H25.3333C26.8061 4 28 5.19391 28 6.66667V25.3333C28 26.8061 26.8061 28 25.3333 28H6.66664C5.19388 28 3.99997 26.8061 3.99997 25.3333V6.66667C3.99997 5.19391 5.19388 4 6.66664 4ZM10.6666 24C11.0348 24 11.3333 23.7015 11.3333 23.3333V14C11.3333 13.6319 11.0348 13.3333 10.6666 13.3333H8.66664C8.29845 13.3333 7.99997 13.6319 7.99997 14V23.3333C7.99997 23.7015 8.29845 24 8.66664 24H10.6666ZM9.66664 12C8.56206 12 7.66664 11.1046 7.66664 10C7.66664 8.89543 8.56206 8 9.66664 8C10.7712 8 11.6666 8.89543 11.6666 10C11.6666 11.1046 10.7712 12 9.66664 12ZM23.3333 24C23.7014 24 24 23.7015 24 23.3333V17.2C24.0433 15.0811 22.4768 13.2727 20.3733 13.0133C18.9026 12.879 17.4777 13.5659 16.6666 14.8V14C16.6666 13.6319 16.3681 13.3333 16 13.3333H14C13.6318 13.3333 13.3333 13.6319 13.3333 14V23.3333C13.3333 23.7015 13.6318 24 14 24H16C16.3681 24 16.6666 23.7015 16.6666 23.3333V18.3333C16.6666 17.2288 17.5621 16.3333 18.6666 16.3333C19.7712 16.3333 20.6666 17.2288 20.6666 18.3333V23.3333C20.6666 23.7015 20.9652 24 21.3333 24H23.3333Z" fill="url(#paint0_linear_50_420)"/>
<defs>
<linearGradient id="paint0_linear_50_420" x1="17.3754" y1="15.8209" x2="4.05249" y2="14.9844" gradientUnits="userSpaceOnUse">
<stop stop-color="#5E3BEE"/>
<stop offset="1" stop-color="#B416FF"/>
</linearGradient>
</defs>
</svg>
