<svg width="199" height="30" viewBox="0 0 199 30" fill="none" xmlns="http://www.w3.org/2000/svg">
<path d="M1.76593 26.8731L4.82986 21.6614C5.58568 20.3758 7.44393 20.3733 8.20318 21.6569C8.56171 22.263 8.56713 23.015 8.21736 23.6263L5.21473 28.8735C4.85963 29.4941 4.19942 29.877 3.48446 29.877C1.94287 29.877 0.98465 28.2021 1.76593 26.8731Z" fill="url(#paint0_linear_12_136)"/>
<path d="M22.1818 20.2904H17.8881C17.257 20.2904 16.673 19.9562 16.3533 19.412C15.6562 18.2253 16.5119 16.7303 17.8881 16.7303H24.6417C26.0686 16.7303 27.3874 17.4905 28.1028 18.7251L32.8607 26.9376C33.622 28.2516 32.6738 29.8967 31.1552 29.8967C30.4494 29.8967 29.7975 29.5193 29.446 28.9073L25.6505 22.2984C24.9372 21.0563 23.6142 20.2904 22.1818 20.2904Z" fill="url(#paint1_linear_12_136)"/>
<path d="M20.1874 28.7799L22.3679 24.8099C23.0571 23.5552 22.1492 22.0207 20.7176 22.0207C20.0381 22.0207 19.4113 22.3869 19.0775 22.9787L19.0424 23.041C18.2789 24.3951 16.33 24.3986 15.5617 23.0471L12.6145 17.8634C12.2644 17.2476 12.2662 16.4925 12.6191 15.8783L15.5614 10.7588C16.333 9.41628 18.2718 9.42204 19.0354 10.7691L20.9318 14.1148C21.2767 14.7234 21.9222 15.0994 22.6217 15.0994C24.1181 15.0994 25.0525 13.4786 24.3026 12.1836L19.032 3.08146C18.263 1.75348 16.3467 1.75048 15.5736 3.07603L8.11525 15.8634C7.75255 16.4853 7.75204 17.2541 8.11389 17.8764L14.4785 28.8224C14.8366 29.4383 15.4952 29.8171 16.2075 29.8171H18.4344C19.1642 29.8171 19.8361 29.4196 20.1874 28.7799Z" fill="url(#paint2_linear_12_136)"/>
<path d="M48.9349 28.825C46.6877 28.825 44.7799 28.6617 43.2115 28.335C41.6431 28.0083 40.3673 27.4483 39.3841 26.655C38.401 25.8617 37.687 24.7942 37.2422 23.4525C36.7975 22.1108 36.5751 20.425 36.5751 18.395C36.5751 16.295 36.7975 14.5567 37.2422 13.18C37.687 11.8033 38.401 10.7125 39.3841 9.9075C40.3673 9.1025 41.6431 8.53667 43.2115 8.21C44.7799 7.88333 46.6877 7.72 48.9349 7.72C50.5267 7.72 51.861 7.80167 52.9378 7.965C54.0147 8.12833 54.8925 8.3325 55.5713 8.5775C56.2619 8.8225 56.7827 9.09083 57.1339 9.3825C57.4967 9.6625 57.7601 9.925 57.9239 10.17V1.56H61.2948V28.44H57.9239V25.4475C57.9239 25.4475 57.643 25.78 57.0812 26.445C56.5896 26.9233 56.0454 27.3083 55.4484 27.6C54.8515 27.8917 54.0147 28.1717 52.9378 28.44C51.861 28.6967 50.5267 28.825 48.9349 28.825ZM48.9349 26.2C50.0586 26.2 51.0593 26.1767 51.9371 26.13C52.815 26.0717 53.5874 25.955 54.2546 25.78C54.9217 25.605 55.4836 25.3483 55.94 25.01C56.4082 24.66 56.7886 24.1992 57.0812 23.6275C57.3738 23.0558 57.5845 22.35 57.7132 21.51C57.8537 20.6583 57.9239 19.6375 57.9239 18.4475C57.9239 17.2108 57.8537 16.1608 57.7132 15.2975C57.5845 14.4225 57.3738 13.6933 57.0812 13.11C56.7886 12.515 56.4082 12.0483 55.94 11.71C55.4836 11.3717 54.9217 11.115 54.2546 10.94C53.5874 10.7533 52.815 10.6367 51.9371 10.59C51.0593 10.5433 50.0586 10.52 48.9349 10.52C47.624 10.52 46.4887 10.5608 45.529 10.6425C44.5809 10.7242 43.7733 10.87 43.1061 11.08C42.439 11.29 41.8947 11.5817 41.4734 11.955C41.0637 12.3283 40.7419 12.8067 40.5078 13.39C40.2854 13.9733 40.1332 14.6792 40.0513 15.5075C39.9811 16.3242 39.946 17.2867 39.946 18.395C39.946 19.4917 39.9811 20.4483 40.0513 21.265C40.1332 22.07 40.2854 22.7642 40.5078 23.3475C40.7419 23.9192 41.0637 24.3917 41.4734 24.765C41.8947 25.1383 42.439 25.43 43.1061 25.64C43.7733 25.85 44.5809 25.9958 45.529 26.0775C46.4887 26.1592 47.624 26.2 48.9349 26.2Z" fill="url(#paint3_linear_12_136)"/>
<path d="M86.0145 28.44V17.24C86.0145 15.9917 85.9209 14.9417 85.7336 14.09C85.5463 13.2267 85.1718 12.5325 84.61 12.0075C84.0482 11.4825 83.2523 11.1033 82.2223 10.87C81.1923 10.6367 79.8346 10.52 78.1492 10.52C76.3233 10.52 74.8251 10.6542 73.6547 10.9225C72.4959 11.1908 71.583 11.57 70.9158 12.06C70.2487 12.55 69.7863 13.1392 69.5289 13.8275C69.2831 14.5158 69.1602 15.28 69.1602 16.12V28.44H65.7893V8.28H69.1602V11.64C69.406 11.0683 69.7571 10.5783 70.2136 10.17C70.67 9.75 71.185 9.39417 71.7585 9.1025C72.3321 8.81083 72.9524 8.5775 73.6195 8.4025C74.2867 8.21583 74.9538 8.07583 75.621 7.9825C76.2881 7.8775 76.9319 7.8075 77.5522 7.7725C78.1843 7.7375 78.7578 7.72 79.2728 7.72C80.7709 7.72 82.0584 7.81333 83.1352 8C84.2237 8.18667 85.1425 8.46083 85.8916 8.8225C86.6524 9.18417 87.261 9.63333 87.7175 10.17C88.174 10.7067 88.5251 11.3308 88.7709 12.0425C89.0284 12.7425 89.1981 13.53 89.28 14.405C89.362 15.2683 89.4029 16.2133 89.4029 17.24L89.3854 28.44H86.0145Z" fill="url(#paint4_linear_12_136)"/>
<path d="M114.052 25.675C114.017 25.815 113.754 26.165 113.262 26.725C112.911 27.145 112.443 27.5183 111.858 27.845C111.273 28.16 110.488 28.405 109.505 28.58C108.534 28.7667 107.252 28.86 105.66 28.86C103.542 28.86 101.734 28.7492 100.235 28.5275C98.7372 28.3175 97.5141 27.9908 96.566 27.5475C95.618 27.0925 94.9216 26.515 94.4768 25.815C94.0437 25.115 93.8272 24.2808 93.8272 23.3125C93.8272 22.2975 93.9443 21.44 94.1783 20.74C94.4241 20.0283 94.7753 19.4333 95.2317 18.955C95.6999 18.4767 96.2617 18.1033 96.9172 17.835C97.5726 17.5667 98.3159 17.3625 99.1469 17.2225C99.9896 17.0825 100.908 16.995 101.903 16.96C102.898 16.925 103.957 16.9075 105.081 16.9075C106.685 16.9075 108.025 16.9775 109.101 17.1175C110.178 17.2458 111.056 17.415 111.735 17.625C112.426 17.8233 112.946 18.0392 113.297 18.2725C113.649 18.5058 113.9 18.7217 114.052 18.92C114.052 17.6133 113.994 16.4992 113.877 15.5775C113.772 14.6558 113.59 13.8858 113.333 13.2675C113.087 12.6492 112.765 12.1592 112.367 11.7975C111.969 11.4242 111.477 11.1442 110.892 10.9575C110.319 10.7708 109.646 10.6542 108.873 10.6075C108.101 10.5492 107.217 10.52 106.222 10.52C104.677 10.52 103.396 10.5608 102.377 10.6425C101.359 10.7125 100.551 10.8583 99.9545 11.08C99.3575 11.3017 98.9362 11.6108 98.6904 12.0075C98.4446 12.3925 98.3217 12.9 98.3217 13.53H94.9508C94.9508 12.4683 95.1381 11.57 95.5126 10.835C95.8989 10.1 96.5309 9.505 97.4088 9.05C98.2983 8.58333 99.4629 8.245 100.903 8.035C102.342 7.825 104.115 7.72 106.222 7.72C108.282 7.72 110.026 7.88917 111.454 8.2275C112.882 8.56583 114.035 9.16083 114.913 10.0125C115.802 10.8642 116.44 12.0133 116.826 13.46C117.224 14.895 117.423 16.715 117.423 18.92V28.44H114.052V25.675ZM106.222 26.2C107.709 26.2 108.949 26.13 109.944 25.99C110.951 25.85 111.758 25.64 112.367 25.36C112.976 25.08 113.409 24.73 113.666 24.31C113.924 23.89 114.052 23.4 114.052 22.84C114.052 22.28 113.9 21.8075 113.596 21.4225C113.303 21.0258 112.806 20.705 112.104 20.46C111.413 20.215 110.494 20.04 109.347 19.935C108.2 19.8183 106.784 19.76 105.099 19.76C103.413 19.76 102.05 19.7892 101.008 19.8475C99.9779 19.9058 99.182 20.04 98.6202 20.25C98.0584 20.46 97.678 20.7692 97.479 21.1775C97.2917 21.5858 97.1981 22.14 97.1981 22.84C97.1981 23.54 97.2976 24.1117 97.4965 24.555C97.7072 24.9867 98.1286 25.325 98.7606 25.57C99.3927 25.815 100.3 25.9842 101.482 26.0775C102.676 26.1592 104.256 26.2 106.222 26.2Z" fill="url(#paint5_linear_12_136)"/>
<path d="M142.161 28.44V17.24C142.161 15.9917 142.067 14.9417 141.88 14.09C141.692 13.2267 141.318 12.5325 140.756 12.0075C140.194 11.4825 139.398 11.1033 138.368 10.87C137.338 10.6367 135.981 10.52 134.295 10.52C132.469 10.52 130.971 10.6542 129.801 10.9225C128.642 11.1908 127.729 11.57 127.062 12.06C126.395 12.55 125.932 13.1392 125.675 13.8275C125.429 14.5158 125.306 15.28 125.306 16.12V28.44H121.935V8.28H125.306V11.64C125.552 11.0683 125.903 10.5783 126.36 10.17C126.816 9.75 127.331 9.39417 127.905 9.1025C128.478 8.81083 129.098 8.5775 129.766 8.4025C130.433 8.21583 131.1 8.07583 131.767 7.9825C132.434 7.8775 133.078 7.8075 133.698 7.7725C134.33 7.7375 134.904 7.72 135.419 7.72C136.917 7.72 138.204 7.81333 139.281 8C140.37 8.18667 141.289 8.46083 142.038 8.8225C142.798 9.18417 143.407 9.63333 143.864 10.17C144.32 10.7067 144.671 11.3308 144.917 12.0425C145.174 12.7425 145.344 13.53 145.426 14.405C145.508 15.2683 145.549 16.2133 145.549 17.24L145.531 28.44H142.161Z" fill="url(#paint6_linear_12_136)"/>
<path d="M187.321 9.96C187.321 8.56 187.169 7.45167 186.865 6.635C186.561 5.81833 186.057 5.2 185.355 4.78C184.653 4.36 183.728 4.09167 182.581 3.975C181.434 3.85833 180.018 3.8 178.332 3.8H169.308C167.81 3.8 166.546 3.84667 165.516 3.94C164.498 4.02167 163.655 4.19667 162.988 4.465C162.321 4.73333 161.806 5.11833 161.443 5.62C161.08 6.12167 160.817 6.78667 160.653 7.615C160.489 8.44333 160.395 9.46417 160.372 10.6775C160.348 11.8792 160.337 13.32 160.337 15C160.337 16.68 160.348 18.1267 160.372 19.34C160.407 20.5417 160.506 21.5567 160.67 22.385C160.834 23.2133 161.092 23.8783 161.443 24.38C161.806 24.8817 162.321 25.2667 162.988 25.535C163.655 25.8033 164.498 25.9842 165.516 26.0775C166.546 26.1592 167.81 26.2 169.308 26.2H178.35C179.661 26.2 180.79 26.165 181.738 26.095C182.686 26.025 183.494 25.8967 184.161 25.71C184.828 25.5233 185.367 25.2667 185.776 24.94C186.186 24.6133 186.502 24.205 186.724 23.715C186.958 23.2133 187.116 22.6183 187.198 21.93C187.28 21.23 187.321 20.4133 187.321 19.48V17.8H173.803V15H190.692V19.48C190.692 20.6 190.622 21.615 190.481 22.525C190.341 23.4233 190.089 24.2283 189.727 24.94C189.375 25.64 188.901 26.2467 188.304 26.76C187.708 27.2733 186.953 27.6992 186.04 28.0375C185.127 28.3642 184.038 28.6033 182.774 28.755C181.51 28.9183 180.035 29 178.35 29H169.308C167.248 29 165.51 28.8717 164.094 28.615C162.689 28.37 161.531 27.9967 160.618 27.495C159.705 26.9817 158.997 26.34 158.493 25.57C158.002 24.8 157.639 23.8958 157.405 22.8575C157.182 21.8192 157.054 20.6467 157.019 19.34C156.983 18.0333 156.966 16.5867 156.966 15C156.966 13.4133 156.983 11.9667 157.019 10.66C157.054 9.35333 157.182 8.18083 157.405 7.1425C157.639 6.10417 158.002 5.2 158.493 4.43C158.997 3.66 159.705 3.02417 160.618 2.5225C161.531 2.00917 162.689 1.63 164.094 1.385C165.51 1.12833 167.248 1 169.308 1H178.332C180.018 1 181.492 1.08167 182.757 1.245C184.021 1.39667 185.109 1.63583 186.022 1.9625C186.935 2.2775 187.69 2.68 188.287 3.17C188.896 3.66 189.375 4.2375 189.727 4.9025C190.089 5.5675 190.341 6.32 190.481 7.16C190.622 8 190.692 8.93333 190.692 9.96H187.321Z" fill="url(#paint7_linear_12_136)"/>
<path d="M198.575 28.44H195.204V25.08H198.575V28.44Z" fill="url(#paint8_linear_12_136)"/>
<defs>
<linearGradient id="paint0_linear_12_136" x1="4.89494" y1="24.2553" x2="0.0120995" y2="24.0122" gradientUnits="userSpaceOnUse">
<stop stop-color="#5E3BEE"/>
<stop offset="1" stop-color="#B416FF"/>
</linearGradient>
<linearGradient id="paint1_linear_12_136" x1="25.8111" y1="23.2153" x2="14.8755" y2="22.1829" gradientUnits="userSpaceOnUse">
<stop stop-color="#5E3BEE"/>
<stop offset="1" stop-color="#B416FF"/>
</linearGradient>
<linearGradient id="paint2_linear_12_136" x1="17.8178" y1="14.7385" x2="7.54408" y2="14.3377" gradientUnits="userSpaceOnUse">
<stop stop-color="#5E3BEE"/>
<stop offset="1" stop-color="#B416FF"/>
</linearGradient>
<linearGradient id="paint3_linear_12_136" x1="126.859" y1="14.791" x2="47.1001" y2="-14.1824" gradientUnits="userSpaceOnUse">
<stop stop-color="#5E3BEE"/>
<stop offset="1" stop-color="#B416FF"/>
</linearGradient>
<linearGradient id="paint4_linear_12_136" x1="126.859" y1="14.791" x2="47.1001" y2="-14.1824" gradientUnits="userSpaceOnUse">
<stop stop-color="#5E3BEE"/>
<stop offset="1" stop-color="#B416FF"/>
</linearGradient>
<linearGradient id="paint5_linear_12_136" x1="126.859" y1="14.791" x2="47.1001" y2="-14.1824" gradientUnits="userSpaceOnUse">
<stop stop-color="#5E3BEE"/>
<stop offset="1" stop-color="#B416FF"/>
</linearGradient>
<linearGradient id="paint6_linear_12_136" x1="126.859" y1="14.791" x2="47.1001" y2="-14.1824" gradientUnits="userSpaceOnUse">
<stop stop-color="#5E3BEE"/>
<stop offset="1" stop-color="#B416FF"/>
</linearGradient>
<linearGradient id="paint7_linear_12_136" x1="126.859" y1="14.791" x2="47.1001" y2="-14.1824" gradientUnits="userSpaceOnUse">
<stop stop-color="#5E3BEE"/>
<stop offset="1" stop-color="#B416FF"/>
</linearGradient>
<linearGradient id="paint8_linear_12_136" x1="126.859" y1="14.791" x2="47.1001" y2="-14.1824" gradientUnits="userSpaceOnUse">
<stop stop-color="#5E3BEE"/>
<stop offset="1" stop-color="#B416FF"/>
</linearGradient>
</defs>
</svg>
