<svg width="46" height="41" viewBox="0 0 46 41" fill="none" xmlns="http://www.w3.org/2000/svg">
<g clip-path="url(#clip0_519_1158)" filter="url(#filter0_d_519_1158)">
<path d="M13.4338 30.9229H11.9197C11.8661 28.6846 11.7187 26.5803 11.4776 24.6085H11.4642L9.15896 30.9229H8.00622L5.71478 24.6085H5.70161C5.53163 26.5016 5.42454 28.6064 5.38007 30.9229H4C4.08894 28.106 4.31247 25.4651 4.6697 23H6.54627L8.73034 28.8217H8.7438L10.9413 23H12.7368C13.1301 25.8874 13.3624 28.5285 13.4338 30.9229ZM20 25.0774C19.3835 28.0073 18.5702 30.1362 17.5608 31.4651C16.7744 32.488 15.9127 33 14.9745 33C14.7243 33 14.4156 32.9339 14.0499 32.8027V32.0962C14.2287 32.1188 14.4385 32.1316 14.6795 32.1316C15.1178 32.1316 15.4701 32.026 15.7387 31.8143C16.0599 31.5566 16.2205 31.2668 16.2205 30.9462C16.2205 30.7263 16.0953 30.2769 15.8454 29.5963L14.1839 25.0771H15.6714L16.8639 28.457C17.1319 29.2245 17.2437 29.7603 17.1989 30.0655C17.851 28.54 18.3066 26.8767 18.5661 25.0769H20V25.0774Z" fill="#5E3BEE"/>
<path d="M39 30.8143H34.9684V22.1292H36.3246V29.7452H39V30.8143ZM33.9131 31.0242L32.3542 30.2362C32.4924 30.1199 32.6246 29.9941 32.7437 29.8483C33.4063 29.0511 33.7367 27.8722 33.7367 26.3107C33.7367 23.4374 32.6359 22 30.4333 22C29.3533 22 28.5108 22.3646 27.9082 23.0941C27.2462 23.8919 26.9157 25.0666 26.9157 26.6197C26.9157 28.1463 27.2086 29.2663 27.7947 29.9767C28.3309 30.6202 29.1391 30.9424 30.22 30.9424C30.6231 30.9424 30.9931 30.8919 31.3301 30.7899L33.3596 32L33.9131 31.0242ZM28.8632 29.0764C28.5198 28.5107 28.3482 27.6022 28.3482 26.3497C28.3482 24.1629 28.9968 23.0683 30.2954 23.0683C30.9742 23.0683 31.4717 23.3301 31.7898 23.8525C32.1326 24.4191 32.3051 25.3194 32.3051 26.5545C32.3051 28.7593 31.656 29.8618 30.3582 29.8618C29.6791 29.8621 29.1816 29.6011 28.8632 29.0764ZM26.3247 28.407C26.3247 29.1435 26.0609 29.7478 25.5337 30.2211C25.0061 30.6924 24.2985 30.9287 23.4118 30.9287C22.5825 30.9287 21.7783 30.6573 21 30.1174L21.3645 29.3716C22.0342 29.7152 22.6406 29.886 23.185 29.886C23.6959 29.886 24.0953 29.7699 24.3849 29.5399C24.6742 29.309 24.8467 28.9851 24.8467 28.5756C24.8467 28.0596 24.4954 27.6185 23.8509 27.2492C23.2566 26.9149 22.068 26.216 22.068 26.216C21.4237 25.7351 21.1012 25.2188 21.1012 24.3683C21.1012 23.6643 21.3417 23.0961 21.823 22.6638C22.3049 22.2298 22.9267 22.0135 23.6888 22.0135C24.4759 22.0135 25.1915 22.2295 25.836 22.657L25.5091 23.4031C24.9578 23.1632 24.4137 23.0433 23.8769 23.0433C23.4423 23.0433 23.1066 23.1503 22.8732 23.3652C22.6379 23.5792 22.4928 23.8531 22.4928 24.189C22.4928 24.7025 22.8515 25.1492 23.5136 25.5258C24.1158 25.8607 25.3341 26.5716 25.3341 26.5716C25.9948 27.0517 26.3247 27.5632 26.3247 28.407Z" fill="url(#paint0_linear_519_1158)"/>
<path d="M40.8156 19.3749C39.9991 19.3524 39.3669 19.4417 38.8363 19.6856C38.6831 19.7521 38.4395 19.7521 38.4182 19.9625C38.501 20.0515 38.5105 20.1951 38.5824 20.318C38.7047 20.5397 38.918 20.8379 39.1127 20.9934C39.3265 21.1714 39.5411 21.3477 39.7662 21.5029C40.163 21.7697 40.6127 21.9249 40.9994 22.1908C41.2247 22.3454 41.4486 22.5454 41.6742 22.7119C41.7851 22.8006 41.8561 22.9445 42 23V22.9662C41.9279 22.8665 41.9074 22.7222 41.8367 22.6113L41.5303 22.2902C41.2343 21.8581 40.8664 21.481 40.4696 21.1712C40.143 20.9266 39.4286 20.5943 39.2962 20.1854L39.2754 20.1628C39.4999 20.14 39.7662 20.0515 39.9795 19.9836C40.3265 19.8842 40.643 19.9067 40.9991 19.8073C41.163 19.7628 41.3255 19.707 41.4899 19.6521V19.5521C41.3053 19.3524 41.1736 19.0871 40.9795 18.8984C40.4601 18.4108 39.8877 17.9339 39.2962 17.5348C38.9794 17.3126 38.572 17.1695 38.2347 16.9805C38.1132 16.9137 37.9084 16.8808 37.8368 16.7698C37.6539 16.5259 37.5509 16.2048 37.4182 15.9161C37.1233 15.3068 36.8368 14.6309 36.5823 13.9866C36.3982 13.5546 36.2863 13.1231 36.0618 12.7234C35.0104 10.839 33.8686 9.69773 32.1138 8.57751C31.7367 8.34427 31.288 8.24486 30.8087 8.1226L30.0433 8.07868C29.88 8.00094 29.7164 7.78995 29.5739 7.69024C28.9916 7.29141 27.4927 6.42699 27.0645 7.56828C26.7887 8.28967 27.4725 8.99889 27.7073 9.36478C27.8807 9.6188 28.1055 9.90783 28.2267 10.1963C28.2986 10.3847 28.3188 10.5847 28.3906 10.7838C28.5539 11.2717 28.7065 11.8144 28.9212 12.2696C29.0331 12.5017 29.1552 12.7456 29.2983 12.9557C29.3802 13.0786 29.5228 13.1329 29.5539 13.3332C29.4116 13.554 29.4004 13.8872 29.3188 14.1644C28.9518 15.4169 29.0951 16.9686 29.6154 17.8891C29.7781 18.1663 30.1664 18.7764 30.6859 18.5426C31.1457 18.3432 31.0439 17.7114 31.176 17.1574C31.2064 17.0235 31.1864 16.9357 31.2476 16.8478V16.8695C31.3899 17.1796 31.5335 17.4784 31.6654 17.7894C31.9819 18.3322 32.533 18.8978 32.992 19.2738C33.2365 19.4744 33.4301 19.8174 33.7362 19.9399V19.9067H33.716C33.654 19.8073 33.5633 19.7628 33.482 19.6856C33.2979 19.4859 33.0942 19.242 32.9514 19.0206C32.5237 18.3995 32.1452 17.712 31.8093 17.0025C31.6449 16.6582 31.5032 16.2819 31.3707 15.9383C31.309 15.8057 31.309 15.6057 31.2066 15.5389C31.0532 15.7825 30.8295 15.9935 30.7175 16.292C30.5234 16.7695 30.5032 17.3568 30.4311 17.9675L30.3909 17.9888C30.066 17.9001 29.9529 17.5348 29.8295 17.2247C29.5239 16.4371 29.4725 15.173 29.7377 14.2644C29.8087 14.032 30.1159 13.3002 29.9933 13.0789C29.9319 12.8667 29.7276 12.7459 29.6156 12.5788C29.484 12.3687 29.3398 12.1029 29.2481 11.8696C29.0034 11.2491 28.8802 10.5616 28.6167 9.94136C28.4935 9.65233 28.2797 9.35321 28.1066 9.08703C27.9121 8.78791 27.6983 8.57722 27.5446 8.2226C27.4938 8.10064 27.4225 7.90123 27.5042 7.76858C27.5241 7.67956 27.5656 7.64632 27.647 7.62407C27.7791 7.5027 28.1568 7.657 28.2893 7.72377C28.6675 7.88995 28.9837 8.04515 29.2994 8.2778C29.4422 8.38908 29.5954 8.59977 29.7787 8.65526H29.9933C30.3191 8.73241 30.6864 8.67663 30.9931 8.77693C31.5335 8.96566 32.0231 9.24252 32.4623 9.54135C33.7985 10.4622 34.9004 11.7705 35.6442 13.3332C35.7663 13.5878 35.8182 13.821 35.9296 14.0866C36.1445 14.6303 36.4102 15.1846 36.6235 15.7166C36.8379 16.2374 37.0422 16.7692 37.3483 17.2019C37.5009 17.4345 38.1143 17.5565 38.3893 17.6784C38.5927 17.7779 38.9095 17.8663 39.093 17.9882C39.4401 18.2206 39.7858 18.4874 40.1122 18.7429C40.2747 18.8758 40.7853 19.153 40.8156 19.3749ZM30.4095 9.74135C30.2687 9.73976 30.1282 9.75852 29.9919 9.79714V9.8194H30.0116C30.0938 9.99656 30.2366 10.1194 30.3385 10.274C30.4207 10.4518 30.492 10.628 30.5725 10.8055L30.5922 10.7835C30.7361 10.6728 30.8076 10.4954 30.8076 10.2292C30.7457 10.1509 30.7361 10.0743 30.6845 9.99656C30.6244 9.88557 30.492 9.83038 30.4095 9.74135Z" fill="#5E3BEE"/>
<path d="M41.8095 31H42V30.0003H41.7143L41.4812 30.6825L41.2279 30.0003H40.9527V31H41.1327V30.2394H41.1428L41.4081 31H41.5452L41.8095 30.2394V31ZM40.2749 31H40.4765V30.1697H40.7403V30H40V30.1697H40.2744L40.2749 31Z" fill="url(#paint1_linear_519_1158)"/>
</g>
<defs>
<filter id="filter0_d_519_1158" x="-1" y="0" width="48" height="48" filterUnits="userSpaceOnUse" color-interpolation-filters="sRGB">
<feFlood flood-opacity="0" result="BackgroundImageFix"/>
<feColorMatrix in="SourceAlpha" type="matrix" values="0 0 0 0 0 0 0 0 0 0 0 0 0 0 0 0 0 0 127 0" result="hardAlpha"/>
<feOffset dy="4"/>
<feGaussianBlur stdDeviation="2"/>
<feComposite in2="hardAlpha" operator="out"/>
<feColorMatrix type="matrix" values="0 0 0 0 0 0 0 0 0 0 0 0 0 0 0 0 0 0 0.25 0"/>
<feBlend mode="normal" in2="BackgroundImageFix" result="effect1_dropShadow_519_1158"/>
<feBlend mode="normal" in="SourceGraphic" in2="effect1_dropShadow_519_1158" result="shape"/>
</filter>
<linearGradient id="paint0_linear_519_1158" x1="31.0316" y1="26.9254" x2="21.1265" y2="25.806" gradientUnits="userSpaceOnUse">
<stop stop-color="#5E3BEE"/>
<stop offset="1" stop-color="#B416FF"/>
</linearGradient>
<linearGradient id="paint1_linear_519_1158" x1="41.1146" y1="30.4925" x2="40.0173" y2="30.3547" gradientUnits="userSpaceOnUse">
<stop stop-color="#5E3BEE"/>
<stop offset="1" stop-color="#B416FF"/>
</linearGradient>
<clipPath id="clip0_519_1158">
<rect width="40" height="40" fill="white" transform="translate(3)"/>
</clipPath>
</defs>
</svg>
