<svg width="40" height="40" viewBox="0 0 40 40" fill="none" xmlns="http://www.w3.org/2000/svg">
<g clip-path="url(#clip0_519_995)">
<path d="M19.7743 32.3095C19.6389 32.3095 19.5125 32.273 19.3951 32.2093L18.1943 31.4893C18.0137 31.389 18.104 31.3525 18.1583 31.3343C18.402 31.2523 18.4471 31.234 18.6999 31.0883C18.727 31.07 18.7632 31.0791 18.7902 31.0973L19.7112 31.6533C19.7473 31.6715 19.7924 31.6715 19.8194 31.6533L23.4219 29.5479C23.458 29.5297 23.4761 29.4932 23.4761 29.4477V25.246C23.4761 25.2004 23.458 25.164 23.4219 25.1457L19.8194 23.0495C19.7834 23.0312 19.7382 23.0312 19.7112 23.0495L16.1087 25.1457C16.0727 25.1639 16.0545 25.2095 16.0545 25.246V29.4476C16.0545 29.4841 16.0727 29.5296 16.1087 29.5479L17.0929 30.1221C17.6256 30.3955 17.9596 30.0765 17.9596 29.7575V25.6105C17.9596 25.5559 18.0048 25.5011 18.068 25.5011H18.5284C18.5826 25.5011 18.6367 25.5467 18.6367 25.6105V29.7575C18.6367 30.4775 18.2485 30.8968 17.5714 30.8968C17.3637 30.8968 17.2012 30.8968 16.7407 30.6689L15.7928 30.1221C15.558 29.9854 15.4136 29.7301 15.4136 29.4567V25.2551C15.4136 24.9817 15.558 24.7264 15.7928 24.5898L19.3951 22.4844C19.6209 22.3568 19.9279 22.3568 20.1536 22.4844L23.7559 24.5898C23.9906 24.7264 24.1352 24.9817 24.1352 25.2551V29.4567C24.1352 29.7301 23.9906 29.9854 23.7559 30.1221L20.1536 32.2275C20.0361 32.2822 19.9007 32.3095 19.7743 32.3095ZM20.8849 29.4203C19.305 29.4203 18.9799 28.6912 18.9799 28.0714C18.9799 28.0167 19.0251 27.962 19.0883 27.962H19.5577C19.6119 27.962 19.657 27.9985 19.657 28.0532C19.7293 28.5362 19.9369 28.7732 20.894 28.7732C21.6523 28.7732 21.9775 28.6 21.9775 28.1899C21.9775 27.9529 21.8871 27.7798 20.7044 27.6613C19.7202 27.561 19.1063 27.3423 19.1063 26.5493C19.1063 25.8111 19.7203 25.3735 20.7495 25.3735C21.9051 25.3735 22.474 25.7746 22.5462 26.6495C22.5462 26.6769 22.5372 26.7042 22.5191 26.7316C22.501 26.7498 22.474 26.768 22.4469 26.768H21.9774C21.9322 26.768 21.8871 26.7316 21.8781 26.686C21.7697 26.1848 21.4898 26.0207 20.7495 26.0207C19.9189 26.0207 19.8195 26.3124 19.8195 26.531C19.8195 26.7954 19.9369 26.8774 21.0564 27.0232C22.167 27.1691 22.6907 27.3787 22.6907 28.1625C22.6816 28.9646 22.0316 29.4203 20.8849 29.4203Z" fill="#5E3BEE"/>
<path d="M8.59692 15.8766C8.59692 15.7126 8.50662 15.5575 8.36218 15.4755L4.53407 13.2517C4.4708 13.2152 4.39862 13.1969 4.32643 13.1878H4.29027C4.21808 13.1878 4.14582 13.2152 4.08263 13.2517L0.254521 15.4755C0.110002 15.5575 0.0197754 15.7125 0.0197754 15.8766L0.0288371 21.8555C0.0288371 21.9375 0.0739895 22.0195 0.146171 22.056C0.21843 22.1016 0.308657 22.1016 0.371932 22.056L2.64713 20.7436C2.79157 20.6615 2.88187 20.5066 2.88187 20.3426V17.5445C2.88187 17.3804 2.9721 17.2255 3.11662 17.1435L4.08263 16.5784C4.15489 16.5328 4.23613 16.5145 4.31737 16.5145C4.39862 16.5145 4.47986 16.5328 4.54313 16.5784L5.50914 17.1435C5.65366 17.2255 5.74389 17.3804 5.74389 17.5445V20.3426C5.74389 20.5066 5.83419 20.6615 5.97863 20.7436L8.25383 22.056C8.28898 22.0784 8.32967 22.0902 8.3712 22.0902C8.41274 22.0902 8.45343 22.0784 8.48857 22.056C8.56083 22.0195 8.60599 21.9375 8.60599 21.8555L8.59692 15.8766ZM26.9971 7.6464C26.9249 7.60989 26.8346 7.60989 26.7714 7.6464C26.6992 7.69198 26.654 7.76485 26.654 7.84686V13.7712C26.654 13.8258 26.627 13.8805 26.5728 13.917C26.5186 13.9443 26.4645 13.9443 26.4103 13.917L25.4533 13.361C25.3831 13.3207 25.3038 13.2995 25.223 13.2995C25.1423 13.2995 25.0629 13.3207 24.9928 13.361L21.1647 15.594C21.0202 15.676 20.9299 15.831 20.9299 15.995V20.4519C20.9299 20.6159 21.0202 20.7709 21.1647 20.8529L24.9928 23.0859C25.0629 23.1262 25.1423 23.1474 25.223 23.1474C25.3038 23.1474 25.3831 23.1262 25.4533 23.0859L29.2814 20.8529C29.4258 20.7709 29.5161 20.616 29.5161 20.4519V9.34165C29.5161 9.16847 29.4258 9.01359 29.2814 8.9315L26.9971 7.6464ZM26.6451 18.9845C26.6451 19.0301 26.627 19.0665 26.5908 19.0847L25.2817 19.8503C25.2635 19.8593 25.2434 19.864 25.223 19.864C25.2027 19.864 25.1826 19.8593 25.1643 19.8503L23.8552 19.0847C23.819 19.0665 23.801 19.0209 23.801 18.9845V17.4533C23.801 17.4077 23.819 17.3713 23.8552 17.3531L25.1643 16.5874C25.1826 16.5784 25.2027 16.5737 25.223 16.5737C25.2434 16.5737 25.2635 16.5784 25.2817 16.5874L26.5908 17.3531C26.627 17.3712 26.6451 17.4169 26.6451 17.4533V18.9845ZM39.7364 17.4169C39.8809 17.3349 39.9622 17.1799 39.9622 17.0158V15.9312C39.9622 15.7672 39.8719 15.6122 39.7364 15.5302L35.9354 13.3064C35.8652 13.2661 35.7859 13.2449 35.7052 13.2449C35.6244 13.2449 35.5451 13.2661 35.4749 13.3064L31.6468 15.5393C31.5023 15.6213 31.4121 15.7763 31.4121 15.9403V20.3972C31.4121 20.5612 31.5024 20.7162 31.6468 20.7982L35.4478 22.9856C35.5923 23.0676 35.7639 23.0676 35.8993 22.9856L38.2016 21.6915C38.2738 21.655 38.319 21.573 38.319 21.491C38.319 21.409 38.2738 21.327 38.2016 21.2904L34.3554 19.0575C34.2831 19.0119 34.238 18.939 34.238 18.857V17.4625C34.238 17.3805 34.2831 17.2985 34.3554 17.262L35.5562 16.5693C35.5913 16.5469 35.632 16.5351 35.6735 16.5351C35.7151 16.5351 35.7558 16.5469 35.7909 16.5693L36.9917 17.262C37.064 17.3076 37.1091 17.3804 37.1091 17.4625V18.5562C37.1091 18.6382 37.1542 18.7203 37.2265 18.7567C37.2616 18.779 37.3023 18.7909 37.3439 18.7909C37.3854 18.7909 37.4261 18.779 37.4612 18.7567L39.7364 17.4169Z" fill="#5E3BEE"/>
<path d="M35.6464 17.2072C35.6598 17.1982 35.6755 17.1935 35.6916 17.1935C35.7076 17.1935 35.7233 17.1982 35.7367 17.2072L36.4681 17.6355C36.4951 17.6538 36.5131 17.6811 36.5131 17.7175V18.5743C36.5131 18.6108 36.4952 18.6381 36.4681 18.6564L35.7367 19.0847C35.7233 19.0936 35.7076 19.0984 35.6916 19.0984C35.6755 19.0984 35.6598 19.0936 35.6464 19.0847L34.9151 18.6564C34.888 18.6381 34.87 18.6108 34.87 18.5743V17.7176C34.87 17.6811 34.888 17.6537 34.9151 17.6356L35.6464 17.2072Z" fill="#5E3BEE"/>
<path d="M14.9982 13.3247C14.928 13.2844 14.8487 13.2632 14.768 13.2632C14.6872 13.2632 14.6079 13.2844 14.5377 13.3247L10.7367 15.5393C10.5922 15.6213 10.511 15.7762 10.511 15.9403V20.379C10.511 20.543 10.6013 20.698 10.7367 20.78L14.5377 22.9947C14.6079 23.035 14.6872 23.0562 14.768 23.0562C14.8487 23.0562 14.928 23.035 14.9982 22.9947L18.7993 20.78C18.9437 20.698 19.025 20.543 19.025 20.379V15.9404C19.025 15.7763 18.9346 15.6214 18.7993 15.5394L14.9982 13.3247Z" fill="#5E3BEE"/>
<mask id="mask0_519_995" style="mask-type:luminance" maskUnits="userSpaceOnUse" x="10" y="13" width="10" height="11">
<path d="M14.9982 13.3247C14.928 13.2844 14.8487 13.2632 14.768 13.2632C14.6872 13.2632 14.6079 13.2844 14.5377 13.3247L10.7367 15.5393C10.5922 15.6213 10.511 15.7762 10.511 15.9403V20.379C10.511 20.543 10.6013 20.698 10.7367 20.78L14.5377 22.9947C14.6079 23.035 14.6872 23.0562 14.768 23.0562C14.8487 23.0562 14.928 23.035 14.9982 22.9947L18.7993 20.78C18.9437 20.698 19.025 20.543 19.025 20.379V15.9404C19.025 15.7763 18.9346 15.6214 18.7993 15.5394L14.9982 13.3247Z" fill="white"/>
</mask>
<g mask="url(#mask0_519_995)">
<path d="M18.8082 15.5393L14.9891 13.3246C14.9516 13.3055 14.9123 13.2902 14.8717 13.2791L10.5922 20.6799C10.6276 20.7235 10.6704 20.7606 10.7186 20.7892L14.5377 23.004C14.646 23.0678 14.7724 23.086 14.8898 23.0495L18.9075 15.6306C18.8804 15.5941 18.8443 15.5666 18.8082 15.5393Z" fill="#5E3BEE"/>
</g>
<mask id="mask1_519_995" style="mask-type:luminance" maskUnits="userSpaceOnUse" x="10" y="13" width="10" height="11">
<path d="M14.9982 13.3247C14.928 13.2844 14.8487 13.2632 14.768 13.2632C14.6872 13.2632 14.6079 13.2844 14.5377 13.3247L10.7367 15.5393C10.5922 15.6213 10.511 15.7762 10.511 15.9403V20.379C10.511 20.543 10.6013 20.698 10.7367 20.78L14.5377 22.9947C14.6079 23.035 14.6872 23.0562 14.768 23.0562C14.8487 23.0562 14.928 23.035 14.9982 22.9947L18.7993 20.78C18.9437 20.698 19.025 20.543 19.025 20.379V15.9404C19.025 15.7763 18.9346 15.6214 18.7993 15.5394L14.9982 13.3247Z" fill="white"/>
</mask>
<g mask="url(#mask1_519_995)">
<path fill-rule="evenodd" clip-rule="evenodd" d="M18.8172 20.78C18.9256 20.7162 19.0068 20.6068 19.043 20.4884L14.8536 13.2699C14.7452 13.2517 14.6278 13.2607 14.5286 13.3245L10.7366 15.5302L14.8265 23.0586C14.8859 23.0488 14.9437 23.0304 14.998 23.0039L18.8172 20.78Z" fill="#4D2CD5"/>
<path fill-rule="evenodd" clip-rule="evenodd" d="M18.8173 20.78L15.0072 22.9948C14.9534 23.0224 14.8955 23.0409 14.8357 23.0494L14.908 23.1862L19.1333 20.7163V20.6616L19.0249 20.4792C19.0069 20.6068 18.9257 20.7162 18.8173 20.78Z" fill="url(#paint0_linear_519_995)"/>
<path fill-rule="evenodd" clip-rule="evenodd" d="M18.8173 20.78L15.0072 22.9948C14.9534 23.0224 14.8955 23.0409 14.8357 23.0494L14.908 23.1862L19.1333 20.7163V20.6616L19.0249 20.4792C19.0069 20.6068 18.9257 20.7162 18.8173 20.78Z" fill="#5E3BEE"/>
</g>
</g>
<defs>
<linearGradient id="paint0_linear_519_995" x1="-431.517" y1="156.57" x2="448.021" y2="156.57" gradientUnits="userSpaceOnUse">
<stop offset="0.09192" stop-color="#6CC04A"/>
<stop offset="0.2864" stop-color="#66B848"/>
<stop offset="0.5968" stop-color="#54A044"/>
<stop offset="0.8624" stop-color="#41873F"/>
</linearGradient>
<clipPath id="clip0_519_995">
<rect width="40" height="24.7619" fill="white" transform="translate(0 7.61902)"/>
</clipPath>
</defs>
</svg>
