<svg width="32" height="32" viewBox="0 0 32 32" fill="none" xmlns="http://www.w3.org/2000/svg">
<path d="M15.3282 0.861254C15.5397 0.199897 16.4603 0.199893 16.6718 0.861251L19.9646 11.1605C20.0592 11.4563 20.3304 11.6566 20.6364 11.6566H31.2923C31.9766 11.6566 32.2611 12.5464 31.7075 12.9551L23.0867 19.3205C22.8391 19.5033 22.7355 19.8273 22.8301 20.123L26.1229 30.4223C26.3344 31.0837 25.5896 31.6336 25.036 31.2249L16.4152 24.8596C16.1676 24.6768 15.8324 24.6768 15.5848 24.8596L6.96402 31.2249C6.41045 31.6336 5.66561 31.0837 5.87706 30.4223L9.16991 20.123C9.26447 19.8273 9.16088 19.5033 8.91332 19.3205L0.292522 12.9551C-0.261053 12.5464 0.0234449 11.6566 0.707701 11.6566H11.3636C11.6696 11.6566 11.9408 11.4563 12.0354 11.1605L15.3282 0.861254Z" fill="#F4BE00"/>
</svg>
