<svg width="32" height="32" viewBox="0 0 32 32" fill="none" xmlns="http://www.w3.org/2000/svg">
<g clip-path="url(#clip0_247_770)">
<mask id="mask0_247_770" style="mask-type:luminance" maskUnits="userSpaceOnUse" x="0" y="0" width="32" height="32">
<path d="M32 0H0V32H32V0Z" fill="white"/>
</mask>
<g mask="url(#mask0_247_770)">
<path fill-rule="evenodd" clip-rule="evenodd" d="M30.2306 16C30.843 16 31.4363 15.9178 32 15.7637C31.5518 15.6692 31.0872 15.6195 30.611 15.6195H22.6968C21.3896 15.6195 20.1698 15.245 19.139 14.5973C19.3643 13.2783 19.9861 12.0139 21.0043 10.9957L26.0626 5.9375C26.4957 5.50438 26.857 5.0267 27.1467 4.51923C26.7629 4.76926 26.3992 5.06266 26.0626 5.39941L20.4662 10.9957C19.5419 11.92 18.4146 12.5176 17.2278 12.7886C16.4544 11.6965 16 10.3627 16 8.9228V1.76949C16 1.15697 15.9178 0.563664 15.7637 0C15.6692 0.448114 15.6195 0.912746 15.6195 1.38899V9.3033C15.6195 10.6105 15.245 11.8302 14.5974 12.861C13.2784 12.6356 12.0139 12.0138 10.9957 10.9956L5.9375 5.9375C5.50438 5.50438 5.0267 5.14299 4.51923 4.85334C4.76926 5.23704 5.06266 5.60075 5.39941 5.9375L10.9957 11.5338C11.92 12.4581 12.5176 13.5854 12.7886 14.7722C11.6965 15.5455 10.3627 16 8.9228 16H1.76949C1.15697 16 0.563662 16.0822 0 16.2363C0.448117 16.3307 0.91275 16.3805 1.389 16.3805H9.3033C10.6105 16.3805 11.8302 16.755 12.861 17.4027C12.6356 18.7216 12.0139 19.9861 10.9957 21.0043L5.9375 26.0626C5.5044 26.4957 5.14301 26.9733 4.85336 27.4808C5.23706 27.2307 5.60075 26.9373 5.9375 26.6006L11.5338 21.0043C12.4581 20.08 13.5854 19.4824 14.7722 19.2114C15.5455 20.3035 16 21.6373 16 23.0773V30.2306C16 30.843 16.0822 31.4363 16.2363 32C16.3307 31.5518 16.3805 31.0872 16.3805 30.611V22.6966C16.3805 21.3894 16.755 20.1698 17.4027 19.139C18.7216 19.3643 19.9861 19.9861 21.0043 21.0043L26.0626 26.0626C26.4957 26.4957 26.9733 26.857 27.4808 27.1467C27.2307 26.7629 26.9373 26.3992 26.6006 26.0626L21.0043 20.4662C20.08 19.5419 19.4824 18.4146 19.2115 17.2278C20.3035 16.4544 21.6373 16 23.0773 16H30.2306Z" fill="#474752"/>
</g>
</g>
<defs>
<clipPath id="clip0_247_770">
<rect width="32" height="32" fill="white"/>
</clipPath>
</defs>
</svg>
