<svg width="17" height="18" viewBox="0 0 17 18" fill="none" xmlns="http://www.w3.org/2000/svg">
<path d="M3.04716 11C4.17684 11 5.09262 10.1046 5.09262 9C5.09262 7.89543 4.17684 7 3.04716 7C1.91749 7 1.00171 7.89543 1.00171 9C1.00171 10.1046 1.91749 11 3.04716 11Z" stroke="#6C757D" stroke-width="1.5" stroke-linecap="round" stroke-linejoin="round"/>
<path d="M13.9563 5C15.086 5 16.0018 4.10457 16.0018 3C16.0018 1.89543 15.086 1 13.9563 1C12.8267 1 11.9109 1.89543 11.9109 3C11.9109 4.10457 12.8267 5 13.9563 5Z" stroke="#6C757D" stroke-width="1.5" stroke-linecap="round" stroke-linejoin="round"/>
<path d="M13.9563 17C15.086 17 16.0018 16.1046 16.0018 15C16.0018 13.8954 15.086 13 13.9563 13C12.8267 13 11.9109 13.8954 11.9109 15C11.9109 16.1046 12.8267 17 13.9563 17Z" stroke="#6C757D" stroke-width="1.5" stroke-linecap="round" stroke-linejoin="round"/>
<path d="M4.82935 9.98047L12.1734 14.0196M12.1734 3.98047L4.82935 8.01964" stroke="#6C757D" stroke-width="1.5" stroke-linecap="round" stroke-linejoin="round"/>
</svg>
