<svg width="32" height="32" viewBox="0 0 32 32" fill="none" xmlns="http://www.w3.org/2000/svg">
<path d="M27.9635 8.95654C27.3443 9.78256 26.5958 10.5031 25.7469 11.0904C25.7469 11.3061 25.7469 11.5219 25.7469 11.7497C25.7537 15.6681 24.1885 19.4255 21.4022 22.1793C18.6158 24.9332 14.8414 26.4532 10.9252 26.3985C8.66112 26.4061 6.42603 25.8892 4.39503 24.8881C4.28551 24.8403 4.21488 24.732 4.21529 24.6124V24.4805C4.21529 24.3084 4.35477 24.1689 4.52683 24.1689C6.75236 24.0955 8.89849 23.3239 10.6616 21.9632C8.64717 21.9225 6.83472 20.7292 6.0006 18.8943C5.95848 18.7941 5.97159 18.6791 6.03523 18.5909C6.09885 18.5028 6.2038 18.4543 6.31213 18.4628C6.92436 18.5243 7.54271 18.4673 8.1334 18.2949C5.90965 17.8333 4.23875 15.9872 3.99961 13.7276C3.99112 13.6192 4.03969 13.5143 4.1278 13.4505C4.21589 13.3869 4.33079 13.3737 4.43097 13.416C5.02772 13.6793 5.67192 13.818 6.32412 13.8235C4.37559 12.5446 3.53395 10.1121 4.2752 7.90163C4.35172 7.68684 4.53555 7.52816 4.75913 7.48392C4.98271 7.43967 5.21308 7.51638 5.36556 7.68586C7.99499 10.4843 11.6079 12.1519 15.4423 12.3371C15.3442 11.9451 15.2959 11.5423 15.2986 11.1383C15.3345 9.01963 16.6454 7.13228 18.6177 6.35983C20.5898 5.58739 22.833 6.08271 24.2971 7.61392C25.295 7.4238 26.2598 7.0886 27.1607 6.61895C27.2267 6.57775 27.3105 6.57775 27.3765 6.61895C27.4177 6.68498 27.4177 6.7687 27.3765 6.83472C26.9401 7.83403 26.2029 8.67216 25.2677 9.23226C26.0866 9.13728 26.8911 8.9441 27.6641 8.65686C27.7291 8.61256 27.8146 8.61256 27.8797 8.65686C27.9342 8.68179 27.975 8.72948 27.9911 8.78723C28.0073 8.84498 27.9971 8.90691 27.9635 8.95654Z" fill="white"/>
</svg>
