<svg width="20" height="20" viewBox="0 0 20 20" fill="none" xmlns="http://www.w3.org/2000/svg">
<rect width="20" height="20" rx="5.33333" fill="url(#paint0_linear_95_583)"/>
<path d="M15.9824 6.44929C15.6728 6.8542 15.2986 7.20741 14.8741 7.49527C14.8741 7.60105 14.8741 7.70682 14.8741 7.81847C14.8775 9.73929 14.0949 11.5811 12.7018 12.9311C11.3086 14.281 9.42137 15.0261 7.46327 14.9993C6.33123 15.003 5.21368 14.7496 4.19818 14.2589C4.14342 14.2354 4.10811 14.1824 4.10832 14.1237V14.0591C4.10832 13.9747 4.17806 13.9064 4.26408 13.9064C5.37685 13.8703 6.44992 13.4921 7.33147 12.8251C6.32426 12.8052 5.41803 12.2202 5.00097 11.3207C4.97991 11.2716 4.98646 11.2152 5.01828 11.172C5.0501 11.1288 5.10257 11.105 5.15674 11.1092C5.46285 11.1394 5.77203 11.1115 6.06737 11.0269C4.9555 10.8007 4.12004 9.8957 4.00048 8.78805C3.99623 8.73491 4.02052 8.68347 4.06457 8.65223C4.10862 8.62105 4.16606 8.61458 4.21616 8.6353C4.51453 8.76439 4.83663 8.83236 5.16273 8.83504C4.18846 8.20815 3.76764 7.01572 4.13827 5.93217C4.17653 5.82689 4.26844 5.7491 4.38024 5.72741C4.49202 5.70572 4.60721 5.74332 4.68345 5.8264C5.99817 7.19821 7.8046 8.01567 9.72184 8.10641C9.67277 7.91429 9.64864 7.71684 9.64997 7.51878C9.66791 6.48021 10.3234 5.55504 11.3095 5.17639C12.2956 4.79774 13.4172 5.04054 14.1492 5.79114C14.6482 5.69794 15.1306 5.53363 15.581 5.30341C15.614 5.28321 15.6559 5.28321 15.6889 5.30341C15.7095 5.33577 15.7095 5.37681 15.6889 5.40918C15.4707 5.89904 15.1021 6.30989 14.6345 6.58444C15.044 6.53789 15.4462 6.44319 15.8327 6.30238C15.8652 6.28067 15.908 6.28067 15.9405 6.30238C15.9678 6.31461 15.9882 6.33798 15.9962 6.36629C16.0043 6.3946 15.9992 6.42496 15.9824 6.44929Z" fill="white"/>
<defs>
<linearGradient id="paint0_linear_95_583" x1="11.1462" y1="9.85075" x2="0.0437662" y2="9.15367" gradientUnits="userSpaceOnUse">
<stop stop-color="#5E3BEE"/>
<stop offset="1" stop-color="#B416FF"/>
</linearGradient>
</defs>
</svg>
